<svg width="25" height="30" viewBox="0 0 25 30" fill="none" xmlns="http://www.w3.org/2000/svg">
<path d="M12.6041 6.48736C12.643 5.28146 12.9752 3.50501 14.1312 2.33797C15.2042 1.25466 16.5105 0.726679 17.3241 0.485308C17.6383 0.392124 17.9396 0.62898 17.9241 0.956251C17.8696 2.11065 17.5661 3.8325 16.7829 4.75493C16.0446 5.62448 14.857 6.77756 13.1174 6.97157C12.8327 7.00333 12.5949 6.77371 12.6041 6.48736Z" fill="#1C1B1C"/>
<path d="M15.5828 28.5592C16.4182 28.8792 17.2628 29.2027 18.0272 29.2027C19.6624 29.2027 24.4238 25.43 24.5953 21.5116C24.6042 21.3104 24.4839 21.1307 24.3082 21.0323C23.097 20.3545 21.1192 18.667 21.0504 16.2119C20.9701 13.3507 22.4067 11.0782 23.4939 10.1382C23.7386 9.92662 23.8226 9.55358 23.6042 9.31502C22.615 8.23474 20.6249 6.7488 18.8092 6.78528C17.4882 6.81182 16.298 7.30388 15.2767 7.72613C14.4932 8.05008 13.809 8.33293 13.2414 8.33293C12.7039 8.33293 12.0585 8.05189 11.3178 7.72934C10.3204 7.29496 9.14997 6.78528 7.83707 6.78528C5.40516 6.78528 0.600109 8.80191 0.600098 16.5871C0.600092 20.7141 4.86057 29.3122 8.45571 29.2027C9.23203 29.2027 10.0617 28.8813 10.8849 28.5623C11.6956 28.2482 12.5001 27.9365 13.2414 27.9365C13.9572 27.9365 14.7656 28.2462 15.5828 28.5592Z" fill="#1C1B1C"/>
</svg>
