<svg width="14" height="26" viewBox="0 0 14 26" fill="none" xmlns="http://www.w3.org/2000/svg">
<path d="M9.93317 0.833496C8.29767 0.833496 6.72915 1.4832 5.57268 2.63967C4.4162 3.79614 3.7665 5.36466 3.7665 7.00016V10.4335H0.466504C0.300818 10.4335 0.166504 10.5678 0.166504 10.7335V15.2668C0.166504 15.4325 0.300818 15.5668 0.466504 15.5668H3.7665V24.8668C3.7665 25.0325 3.90082 25.1668 4.0665 25.1668H8.59984C8.76552 25.1668 8.89984 25.0325 8.89984 24.8668V15.5668H12.2291C12.3667 15.5668 12.4867 15.4731 12.5201 15.3396L13.6534 10.8063C13.7008 10.6169 13.5576 10.4335 13.3624 10.4335H8.89984V7.00016C8.89984 6.72611 9.00871 6.46327 9.20249 6.26949C9.39628 6.0757 9.65911 5.96683 9.93317 5.96683H13.3998C13.5655 5.96683 13.6998 5.83251 13.6998 5.66683V1.1335C13.6998 0.967811 13.5655 0.833496 13.3998 0.833496H9.93317Z" fill="#1C1B1C"/>
</svg>
