<svg width="24" height="24" viewBox="0 0 24 24" fill="none" xmlns="http://www.w3.org/2000/svg">
<path d="M23.5476 9.6C23.6749 9.6 23.7847 9.68992 23.8071 9.81524C23.932 10.5162 24 11.2707 24 12C24 15.0741 22.8438 17.8784 20.9426 20.0017C20.8478 20.1076 20.686 20.1169 20.5774 20.025L17.3166 17.2651C17.1978 17.1646 17.1904 16.9843 17.2956 16.8696C17.9448 16.162 18.4546 15.3241 18.7818 14.4H12.2667C12.1194 14.4 12 14.2806 12 14.1333V9.86667C12 9.71939 12.1194 9.6 12.2667 9.6H23.5476Z" fill="#1C1B1C"/>
<path d="M15.2969 18.4001C15.3951 18.3493 15.5146 18.3608 15.5989 18.4322L19.0224 21.3291C19.1525 21.4392 19.1475 21.6414 19.0093 21.741C17.0373 23.1625 14.6164 24 12 24C7.78411 24 4.07572 21.8255 1.93534 18.537C1.8606 18.4221 1.88834 18.2696 1.99687 18.186L5.3906 15.5712C5.52131 15.4705 5.71097 15.5118 5.79483 15.6539C7.0473 17.7762 9.35749 19.2 12 19.2C13.1891 19.2 14.3099 18.9112 15.2969 18.4001Z" fill="#1C1B1C"/>
<path d="M4.9055 13.2348C4.92273 13.3345 4.88485 13.4361 4.80473 13.4979L1.15855 16.3071C1.01895 16.4147 0.815223 16.3597 0.753607 16.1946C0.266357 14.8888 0 13.4755 0 12C0 10.4633 0.288912 8.99401 0.815377 7.64352C0.877901 7.48313 1.07546 7.42873 1.21428 7.53053L4.85707 10.2021C4.94376 10.2656 4.98334 10.375 4.96075 10.4801C4.85544 10.9701 4.8 11.4786 4.8 12C4.8 12.421 4.83614 12.8336 4.9055 13.2348Z" fill="#1C1B1C"/>
<path d="M5.52952 8.21502C5.65735 8.30877 5.83794 8.27068 5.92311 8.13698C7.20114 6.13083 9.44527 4.8 12 4.8C13.745 4.8 15.3403 5.42586 16.5858 6.45948C16.6945 6.54967 16.8546 6.5454 16.9545 6.44554L19.9755 3.42452C20.0822 3.31778 20.0793 3.14357 19.9666 3.04317C17.8471 1.1556 15.0615 0 12 0C7.84017 0 4.17444 2.11707 2.02156 5.33245C1.94328 5.44936 1.97281 5.60662 2.08626 5.68983L5.52952 8.21502Z" fill="#1C1B1C"/>
</svg>
