<svg width="250" height="184" viewBox="0 0 250 184" fill="none" xmlns="http://www.w3.org/2000/svg">
<path d="M158.527 2.65476C156.613 2.65476 156.321 2.02175 157.638 0.7272C159.231 -0.839025 161.217 0.164827 162.827 3.35161C165.746 9.12885 166.375 26.1393 164.283 42.7273C160.142 75.5521 141.447 117.935 123.801 134.502C120.85 137.272 117.226 140.102 115.747 140.792C109.359 143.769 104.007 142.629 101.476 137.752C98.2543 131.544 98.9798 121.272 104.277 98.079C108.914 77.7757 109.988 68.6401 107.744 68.5376C107.707 68.5388 107.67 68.5412 107.633 68.5449C106.346 68.8219 102.072 76.0971 96.0937 88.1947C84.4164 111.826 81.1711 115.513 75.746 111.319C66.234 103.964 73.6269 66.2356 90.2312 37.3936C96.7791 26.0205 104.924 15.9106 105.492 18.4529C105.787 19.7793 104.966 21.2138 97.4279 32.5394C88.2552 46.3196 79.1343 68.4084 75.9781 84.4856C73.251 98.3785 74.6184 109.968 78.9843 109.968C81.1946 109.968 83.1264 107.456 87.3425 99.1005C94.5343 84.8476 104.582 67.0636 105.807 66.419C107.808 65.3662 110.019 65.9809 110.981 67.8575C112.889 71.5768 111.749 81.5576 107.142 101.478C106.018 106.334 104.758 112.505 104.341 115.192C103.361 121.494 103.364 133.602 104.345 136.369C106.529 142.53 112.82 140.413 122.552 130.243C136.379 115.795 148.325 91.5438 156.345 61.6436C161.333 43.0472 161.966 38.538 161.953 21.6722C161.942 4.8669 161.543 2.65476 158.527 2.65476Z" fill="#F4FAFF"/>
<path d="M11.0663 167.19C9.47098 161.68 7.99724 156.614 7.79065 155.932C7.50542 154.988 7.71625 154.763 8.99023 154.879C9.14564 154.824 9.32329 154.795 9.5198 154.795C9.77368 154.795 10.0061 154.886 10.2422 155.127C11.3019 155.613 11.8241 157.23 13.7589 163.943L16.298 172.751L17.7469 168.018C18.5442 165.414 19.7609 161.363 20.4512 159.014C21.4513 155.611 21.7857 154.905 22.9043 154.904C23.0693 154.831 23.2415 154.795 23.4199 154.795C23.8284 154.795 24.118 154.826 24.4549 155.309C25.2996 155.968 25.9418 157.782 27.5636 163.068C28.9026 167.432 30.1753 171.172 30.3929 171.381C30.6106 171.589 31.859 168.019 33.1677 163.447C35.0586 156.839 35.4985 155.47 36.6689 155.073C36.887 154.871 37.1039 154.795 37.3399 154.795C37.5358 154.795 37.7213 154.824 37.8869 154.875C39.0635 154.781 39.3957 154.992 39.1476 155.628C38.9459 156.145 37.4473 161.213 35.8174 166.888L32.8547 177.208H30.6935C28.5419 177.208 28.5205 177.172 26.2211 169.712C24.9498 165.589 23.7096 162.094 23.4643 161.944C23.2197 161.796 21.9463 165.168 20.6357 169.439C18.2644 177.164 18.2409 177.203 16.1101 177.206L13.9675 177.208L11.0663 167.19Z" fill="#F4FAFF"/>
<path d="M48.9982 177.208V154.795H50.7255C50.8064 154.795 50.8835 154.795 50.9571 154.796C50.9939 154.795 51.0317 154.795 51.0707 154.795C51.3815 154.795 51.623 154.822 51.8106 154.934C52.428 155.248 52.4528 156.265 52.4528 159.549V164.303H64.1983V159.889C64.1983 159.776 64.1984 159.666 64.1985 159.558V159.549C64.1985 156.271 64.2232 155.251 64.8374 154.935C65.0254 154.822 65.2678 154.795 65.5801 154.795C65.6192 154.795 65.6571 154.795 65.694 154.796C65.7676 154.795 65.8448 154.795 65.9258 154.795H67.6532V177.208H65.9258C65.8449 177.208 65.7677 177.208 65.6942 177.207C65.6572 177.208 65.6193 177.208 65.5801 177.208C65.2677 177.208 65.0253 177.18 64.8373 177.067C64.2232 176.751 64.1985 175.731 64.1985 172.454V172.445C64.1984 172.337 64.1983 172.227 64.1983 172.114V167.699H52.4528V172.454C52.4528 175.737 52.428 176.755 51.8107 177.069C51.6231 177.18 51.3816 177.208 51.0707 177.208C51.0316 177.208 50.9937 177.208 50.9568 177.207C50.8834 177.208 50.8063 177.208 50.7255 177.208H48.9982Z" fill="#F4FAFF"/>
<path d="M79.3989 177.208V154.795H82.8535V177.208H79.3989Z" fill="#F4FAFF"/>
<path d="M96.3826 157.483C93.4896 157.405 93.2174 157.124 93.2174 156.153C93.2174 154.867 93.6783 154.795 101.854 154.795C101.917 154.795 101.98 154.795 102.042 154.795C102.094 154.795 102.146 154.795 102.199 154.795C102.305 154.795 102.41 154.795 102.514 154.795C107.386 154.8 109.314 154.863 110.053 155.233C110.343 155.317 110.49 155.412 110.49 155.519C110.49 155.598 110.485 155.681 110.473 155.769C110.486 155.844 110.491 155.925 110.491 156.012C110.491 156.681 107.682 161.036 104.249 165.69L98.0076 174.152L104.594 174.346C110.614 174.524 111.181 174.656 111.181 175.874C111.181 177.131 110.665 177.208 102.199 177.208C102.199 177.208 102.2 177.208 102.199 177.208C99.0774 177.208 97.1221 177.191 95.9017 177.092C93.8578 176.965 93.2174 176.717 93.2174 176.269C93.2174 175.753 96.1677 171.321 99.7743 166.42L106.089 157.841L100.161 157.655C98.5046 157.604 97.2827 157.555 96.3826 157.483Z" fill="#F4FAFF"/>
<path d="M136.254 166.681C134.642 161.077 133.316 156.111 133.307 155.644C133.305 155.529 133.347 155.42 133.426 155.32C133.429 154.937 133.685 154.814 134.301 154.861C134.495 154.818 134.708 154.795 134.932 154.795C136.441 154.795 136.753 155.44 138.793 162.775C140.014 167.164 141.244 170.995 141.527 171.287C141.81 171.579 142.429 170.509 142.903 168.91C146.98 155.155 147.131 154.795 148.83 154.795C150.208 154.795 150.634 155.357 151.53 158.36C152.115 160.321 153.338 164.369 154.246 167.353L155.898 172.78L156.982 169.051C160.484 157.007 160.976 155.11 161.947 154.832C162.189 154.763 162.461 154.795 162.817 154.795C163.182 154.795 163.481 154.786 163.703 154.853C164.259 154.88 164.403 155.122 164.207 155.624C164.193 155.661 164.172 155.72 164.145 155.801C164.095 157.166 163.152 160.374 160.967 167.916L158.372 176.868H157.446C157.083 177.183 156.688 177.208 156.138 177.208C155.574 177.208 155.169 177.171 154.799 176.868H153.827L149.584 163.046C149.157 162.029 148.822 161.398 148.644 161.312L143.544 177.286L142.191 177.156C141.977 177.199 141.739 177.208 141.463 177.208C140.939 177.208 140.487 177.121 140.126 176.959L139.185 176.868L136.254 166.681Z" fill="#F4FAFF"/>
<path d="M174.747 154.795L174.746 177.208H180.965C180.965 177.208 180.965 177.208 180.965 177.208C183.844 177.208 185.398 177.183 186.233 177.001C187.068 176.818 187.183 176.479 187.183 175.85C187.183 174.63 186.722 174.491 182.692 174.491H178.201V167.699H182.395C186.349 167.699 186.576 167.612 186.368 166.171C186.172 164.817 185.694 164.62 182.174 164.439L178.201 164.235V157.511H182.311C182.333 157.511 182.356 157.511 182.379 157.511H182.692C186.722 157.511 187.183 157.372 187.183 156.153C187.183 155.761 187.139 155.481 186.903 155.282C186.381 154.842 184.928 154.795 180.965 154.795C180.965 154.795 180.965 154.795 180.965 154.795H174.747Z" fill="#F4FAFF"/>
<path fill-rule="evenodd" clip-rule="evenodd" d="M196.778 173.982C197.484 172.207 199.387 167.164 201.007 162.775C203.932 154.852 203.969 154.795 206.165 154.795C208.36 154.795 208.399 154.855 211.336 162.775C212.963 167.164 214.875 172.207 215.584 173.982L216.873 177.208H215.64C215.606 177.21 215.569 177.21 215.53 177.208H214.91C213.289 177.208 212.835 176.824 212.303 175.001L211.659 172.793H200.708L200.064 175.001C199.532 176.824 199.079 177.208 197.457 177.208H195.494L196.778 173.982ZM202.549 168.209C202.722 167.742 203.6 165.314 204.503 162.815L206.11 158.362C206.134 158.362 206.158 158.365 206.182 158.371L207.619 162.135C209.268 166.454 210.008 168.095 209.49 168.709C209.108 169.162 208.043 169.058 206.156 169.058C203.314 169.058 202.322 168.824 202.549 168.209Z" fill="#F4FAFF"/>
<path fill-rule="evenodd" clip-rule="evenodd" d="M226.566 154.795L226.566 166.001C226.566 166.339 226.566 166.667 226.566 166.984V177.208H228.293C229.983 177.208 230.021 177.098 230.021 172.067C230.021 169.242 230.045 167.969 230.34 167.437C230.6 167.271 230.951 167.213 231.433 167.158C231.473 167.153 231.512 167.149 231.55 167.146C232.574 167.316 233.947 168.895 235.869 172.114C237.524 174.886 238.472 176.164 239.444 176.721C239.913 177.085 240.351 177.208 240.864 177.208H242.57L242.432 176.984C242.449 176.966 242.457 176.946 242.457 176.926C242.457 176.72 241.194 174.523 239.649 172.042L236.841 167.532L239.115 165.665C241.03 164.093 241.39 163.344 241.39 160.922C241.39 158.619 241.007 157.723 239.467 156.421C237.787 155 236.848 154.795 232.055 154.795H226.566ZM230.021 164.303V157.511H232.903C236.055 157.511 237.863 158.777 238.269 160.257C238.298 160.482 238.312 160.721 238.312 160.975C238.312 161.19 238.294 161.399 238.26 161.601C237.86 163.014 236.223 164.343 233.303 164.731L232.342 164.859C232.335 164.858 232.327 164.858 232.319 164.857C231.052 164.754 230.39 164.686 230.021 164.303Z" fill="#F4FAFF"/>
<path fill-rule="evenodd" clip-rule="evenodd" d="M1.71879 182.933C0.093736 181.335 0.093736 150.668 1.71879 149.07C2.69783 148.108 14.8346 148.003 125 148.003C235.165 148.003 247.302 148.108 248.281 149.07C249.906 150.668 249.906 181.335 248.281 182.933C247.302 183.895 235.165 184 125 184C14.8346 184 2.69783 183.895 1.71879 182.933ZM2.17481 166.695C2.07186 158.112 2.14026 150.699 2.32611 150.223C2.59903 149.525 26.4215 149.39 125.152 149.529L247.639 149.701V182.302H2.36066L2.17481 166.695Z" fill="#F4FAFF"/>
</svg>
